[Header]
FileType HTR
DataType HTRS
FileVersion 1
NumSegments 64
NumFrames 4
DataFrameRate 24
EulerRotationOrder ZYX
CalibrationUnits mm
RotationUnits Degrees
GlobalAxisofGravity Y
BoneLengthAxis Y
ScaleFactor 1.0
[SegmentNames&Hierarchy]
Hips	GLOBAL
Spine	Hips
Spine1	Spine
Spine2	Spine1
Neck	Spine2
Head	Neck
LeftEye	Head
RightEye	Head
LeftShoulder	Spine2
LeftArm	LeftShoulder
LeftForeArm	LeftArm
LeftHand	LeftForeArm
LeftHandThumb1	LeftHand
LeftHandThumb2	LeftHandThumb1
LeftHandThumb3	LeftHandThumb2
LeftHandThumb4	LeftHandThumb3
LeftHandIndex1	LeftHand
LeftHandIndex2	LeftHandIndex1
LeftHandIndex3	LeftHandIndex2
LeftHandIndex4	LeftHandIndex3
LeftHandMiddle1	LeftHand
LeftHandMiddle2	LeftHandMiddle1
LeftHandMiddle3	LeftHandMiddle2
LeftHandMiddle4	LeftHandMiddle3
LeftHandRing1	LeftHand
LeftHandRing2	LeftHandRing1
LeftHandRing3	LeftHandRing2
LeftHandRing4	LeftHandRing3
LeftHandPinky1	LeftHand
LeftHandPinky2	LeftHandPinky1
LeftHandPinky3	LeftHandPinky2
LeftHandPinky4	LeftHandPinky3
RightShoulder	Spine2
RightArm	RightShoulder
RightForeArm	RightArm
RightHand	RightForeArm
RightHandPinky1	RightHand
RightHandPinky2	RightHandPinky1
RightHandPinky3	RightHandPinky2
RightHandPinky4	RightHandPinky3
RightHandRing1	RightHand
RightHandRing2	RightHandRing1
RightHandRing3	RightHandRing2
RightHandRing4	RightHandRing3
RightHandMiddle1	RightHand
RightHandMiddle2	RightHandMiddle1
RightHandMiddle3	RightHandMiddle2
RightHandMiddle4	RightHandMiddle3
RightHandIndex1	RightHand
RightHandIndex2	RightHandIndex1
RightHandIndex3	RightHandIndex2
RightHandIndex4	RightHandIndex3
RightHandThumb1	RightHand
RightHandThumb2	RightHandThumb1
RightHandThumb3	RightHandThumb2
RightHandThumb4	RightHandThumb3
LeftUpLeg	Hips
LeftLeg	LeftUpLeg
LeftFoot	LeftLeg
LeftToeBase	LeftFoot
RightUpLeg	Hips
RightLeg	RightUpLeg
RightFoot	RightLeg
RightToeBase	RightFoot
[BasePosition]
Hips	0	0	0	0	0	0	1
Spine	0	0	0	0	0	0	1
Spine1	0	0	0	0	0	0	1
Spine2	0	0	0	0	0	0	1
Neck	0	0	0	0	0	0	1
Head	0	0	0	0	0	0	1
LeftEye	0	0	0	0	0	0	1
RightEye	0	0	0	0	0	0	1
LeftShoulder	0	0	0	0	0	0	1
LeftArm	0	0	0	0	0	0	1
LeftForeArm	0	0	0	0	0	0	1
LeftHand	0	0	0	0	0	0	1
LeftHandThumb1	0	0	0	0	0	0	1
LeftHandThumb2	0	0	0	0	0	0	1
LeftHandThumb3	0	0	0	0	0	0	1
LeftHandThumb4	0	0	0	0	0	0	1
LeftHandIndex1	0	0	0	0	0	0	1
LeftHandIndex2	0	0	0	0	0	0	1
LeftHandIndex3	0	0	0	0	0	0	1
LeftHandIndex4	0	0	0	0	0	0	1
LeftHandMiddle1	0	0	0	0	0	0	1
LeftHandMiddle2	0	0	0	0	0	0	1
LeftHandMiddle3	0	0	0	0	0	0	1
LeftHandMiddle4	0	0	0	0	0	0	1
LeftHandRing1	0	0	0	0	0	0	1
LeftHandRing2	0	0	0	0	0	0	1
LeftHandRing3	0	0	0	0	0	0	1
LeftHandRing4	0	0	0	0	0	0	1
LeftHandPinky1	0	0	0	0	0	0	1
LeftHandPinky2	0	0	0	0	0	0	1
LeftHandPinky3	0	0	0	0	0	0	1
LeftHandPinky4	0	0	0	0	0	0	1
RightShoulder	0	0	0	0	0	0	1
RightArm	0	0	0	0	0	0	1
RightForeArm	0	0	0	0	0	0	1
RightHand	0	0	0	0	0	0	1
RightHandPinky1	0	0	0	0	0	0	1
RightHandPinky2	0	0	0	0	0	0	1
RightHandPinky3	0	0	0	0	0	0	1
RightHandPinky4	0	0	0	0	0	0	1
RightHandRing1	0	0	0	0	0	0	1
RightHandRing2	0	0	0	0	0	0	1
RightHandRing3	0	0	0	0	0	0	1
RightHandRing4	0	0	0	0	0	0	1
RightHandMiddle1	0	0	0	0	0	0	1
RightHandMiddle2	0	0	0	0	0	0	1
RightHandMiddle3	0	0	0	0	0	0	1
RightHandMiddle4	0	0	0	0	0	0	1
RightHandIndex1	0	0	0	0	0	0	1
RightHandIndex2	0	0	0	0	0	0	1
RightHandIndex3	0	0	0	0	0	0	1
RightHandIndex4	0	0	0	0	0	0	1
RightHandThumb1	0	0	0	0	0	0	1
RightHandThumb2	0	0	0	0	0	0	1
RightHandThumb3	0	0	0	0	0	0	1
RightHandThumb4	0	0	0	0	0	0	1
LeftUpLeg	0	0	0	0	0	0	1
LeftLeg	0	0	0	0	0	0	1
LeftFoot	0	0	0	0	0	0	1
LeftToeBase	0	0	0	0	0	0	1
RightUpLeg	0	0	0	0	0	0	1
RightLeg	0	0	0	0	0	0	1
RightFoot	0	0	0	0	0	0	1
RightToeBase	0	0	0	0	0	0	1
[Hips]
56	132.7690887	935.3826904	-12.54790401	3.938922405	-20.60900497	5.397315025	1.0
57	130.4945068	915.2682495	-25.89700699	5.425858498	-19.53040314	2.472660303	1.0
58	117.6980667	915.2807617	-28.94879913	6.078104973	-16.16243744	0.4894939363	1.0
59	93.99155426	940.5964355	-26.68814659	6.801631927	-13.6602335	-1.083509684	1.0
[Spine]
56	0	101.8159943	1.315000057	9.85708046	0.7336650491	-1.71999073	1.0
57	0	101.8159943	1.315000057	11.9502449	-0.3918460011	-1.004503489	1.0
58	0	101.8159943	1.315000057	12.94785404	-1.125090837	0.01606171019	1.0
59	0	101.8159943	1.315000057	12.52933121	-1.161847353	0.8343265653	1.0
[Spine1]
56	0	100.8349991	-10.00800037	2.890663147	0.2099009454	0.1706324369	1.0
57	0	100.8349991	-10.00800037	3.447546959	0.02991335839	0.4083056748	1.0
58	0	100.8349991	-10.00800037	4.004841805	-0.06959632039	0.8970285654	1.0
59	0	100.8349991	-10.00800037	4.322388649	-0.06605481356	1.169435501	1.0
[Spine2]
56	0	91	-13.73399925	2.889857054	0.2023817301	0.176904127	1.0
57	0	91	-13.73399925	3.4474895	0.0352868326	0.4072578847	1.0
58	0	91	-13.73399925	4.005228519	-0.03499381617	0.8888146281	1.0
59	0	91	-13.73399925	4.324202538	-0.01599447988	1.158705711	1.0
[Neck]
56	0	166.7169952	-25.16200066	2.911681414	4.075124264	-1.464808226	1.0
57	0	166.7169952	-25.16200066	0.1758114547	3.808550119	-0.6473231316	1.0
58	0	166.7169952	-25.16200066	-1.159153461	3.230741501	-1.476707101	1.0
59	0	166.7169952	-25.16200066	-2.204046249	2.849600077	-2.002798557	1.0
[Head]
56	0	96.17900085	16.84999847	-32.25192642	16.48061943	-11.49882889	1.0
57	0	96.17900085	16.84999847	-35.61154938	16.01766586	-11.3036747	1.0
58	0	96.17900085	16.84999847	-36.55426788	13.54084206	-10.07148552	1.0
59	0	96.17900085	16.84999847	-35.56866074	12.09942722	-9.221576691	1.0
[LeftEye]
56	30.6760006	64.09500122	92.83599854	0	0	0	1.0
57	30.6760006	64.09500122	92.83599854	0	0	0	1.0
58	30.6760006	64.09500122	92.83599854	0	0	0	1.0
59	30.6760006	64.09500122	92.83599854	0	0	0	1.0
[RightEye]
56	-30.6760006	64.09500122	92.83499908	0	0	0	1.0
57	-30.6760006	64.09500122	92.83499908	0	0	0	1.0
58	-30.6760006	64.09500122	92.83499908	0	0	0	1.0
59	-30.6760006	64.09500122	92.83499908	0	0	0	1.0
[LeftShoulder]
56	45.70400238	109.4599991	-26.28000069	4.624833107	-28.77584267	-8.260408401	1.0
57	45.70400238	109.4599991	-26.28000069	4.760418892	-28.20834732	-8.942398071	1.0
58	45.70400238	109.4599991	-26.28000069	4.871953487	-27.70778465	-9.504125595	1.0
59	45.70400238	109.4599991	-26.28000069	4.7652812	-28.13263512	-8.989229202	1.0
[LeftArm]
56	105.923996	-5.24600029	-22.32099915	32.17773438	-35.53915405	-24.54008293	1.0
57	105.923996	-5.24600029	-22.32099915	20.30356598	-39.31911469	-19.93164444	1.0
58	105.923996	-5.24600029	-22.32099915	8.571081161	-48.08066177	-18.53461075	1.0
59	105.923996	-5.24600029	-22.32099915	-1.98552084	-54.362854	-19.82248306	1.0
[LeftForeArm]
56	278.414978	-0.0009999999311	0	-2.57584361e-06	-49.63082504	-0.0002088899782	1.0
57	278.414978	-0.0009999999311	0	2.073358019e-06	-50.3307457	-0.0001998152293	1.0
58	278.414978	-0.0009999999311	0	-3.633987717e-06	-46.01041031	-0.0002083759173	1.0
59	278.414978	-0.0009999999311	0	5.423772222e-07	-42.34777832	-0.0001972484606	1.0
[LeftHand]
56	283.2879944	0	0	34.87636566	-16.37489128	-25.46115303	1.0
57	283.2879944	0	0	41.04996109	-2.722144365	-42.21121979	1.0
58	283.2879944	0	0	53.10416794	8.543248177	-46.16311264	1.0
59	283.2879944	0	0	62.5486145	20.18358612	-40.30990601	1.0
[LeftHandThumb1]
56	24.6609993	-15.75	26.8239994	-1.441468	-8.319270134	8.653972626	1.0
57	24.6609993	-15.75	26.8239994	-1.441466093	-8.319266319	8.653958321	1.0
58	24.6609993	-15.75	26.8239994	-1.441467881	-8.319267273	8.653974533	1.0
59	24.6609993	-15.75	26.8239994	-1.441467524	-8.319265366	8.653951645	1.0
[LeftHandThumb2]
56	32.29800034	-18.64699936	18.64699936	6.693880081	35.79315186	-1.551233411	1.0
57	32.29800034	-18.64699936	18.64699936	6.693878651	35.79314804	-1.551255226	1.0
58	32.29800034	-18.64699936	18.64699936	6.69387722	35.7931366	-1.551213145	1.0
59	32.29800034	-18.64699936	18.64699936	6.693873882	35.79314423	-1.551221371	1.0
[LeftHandThumb3]
56	26.52600098	-15.31499958	15.31499958	-0.857984066	28.98579597	24.39994049	1.0
57	26.52600098	-15.31499958	15.31499958	-0.8579829931	28.98579025	24.39995193	1.0
58	26.52600098	-15.31499958	15.31499958	-0.8579854369	28.98578644	24.3999424	1.0
59	26.52600098	-15.31499958	15.31499958	-0.8579743505	28.98577881	24.39994621	1.0
[LeftHandThumb4]
56	19.54599953	-11.28499985	11.28499985	0	0	0	1.0
57	19.54599953	-11.28499985	11.28499985	0	0	0	1.0
58	19.54599953	-11.28499985	11.28499985	0	0	0	1.0
59	19.54599953	-11.28499985	11.28499985	0	0	0	1.0
[LeftHandIndex1]
56	91.09299469	-5.170999527	22.60099792	2.074710369	6.374517918	-51.86821365	1.0
57	91.09299469	-5.170999527	22.60099792	2.074710846	6.374522209	-51.8682518	1.0
58	91.09299469	-5.170999527	22.60099792	2.0747118	6.374519825	-51.86821365	1.0
59	91.09299469	-5.170999527	22.60099792	2.074713945	6.374522209	-51.86821747	1.0
[LeftHandIndex2]
56	36.76399994	0	0	-5.084234715	5.778058529	-82.67962646	1.0
57	36.76399994	0	0	-5.084237099	5.778056622	-82.67962646	1.0
58	36.76399994	0	0	-5.084236145	5.778051853	-82.67962646	1.0
59	36.76399994	0	0	-5.084236145	5.778056622	-82.67962646	1.0
[LeftHandIndex3]
56	28.83100128	0	0	-6.449683189	5.791761398	-96.16447449	1.0
57	28.83100128	0	0	-6.449676991	5.791757107	-96.16448975	1.0
58	28.83100128	0	0	-6.449684143	5.79175806	-96.16447449	1.0
59	28.83100128	0	0	-6.449680805	5.79175806	-96.16447449	1.0
[LeftHandIndex4]
56	23.92700005	0	0	0	0	0	1.0
57	23.92700005	0	0	0	0	0	1.0
58	23.92700005	0	0	0	0	0	1.0
59	23.92700005	0	0	0	0	0	1.0
[LeftHandMiddle1]
56	95.33399963	0	0	-6.494760036	5.27325964	-74.30394745	1.0
57	95.33399963	0	0	-6.494763374	5.273261547	-74.30394745	1.0
58	95.33399963	0	0	-6.49475956	5.27326107	-74.30393982	1.0
59	95.33399963	0	0	-6.494762897	5.273262024	-74.30393982	1.0
[LeftHandMiddle2]
56	36.98199844	0	0	-7.583497047	5.554388523	-107.5965805	1.0
57	36.98199844	0	0	-7.583498478	5.554387569	-107.596611	1.0
58	36.98199844	0	0	-7.583496094	5.554388046	-107.5965958	1.0
59	36.98199844	0	0	-7.583502293	5.554388523	-107.5965958	1.0
[LeftHandMiddle3]
56	29.50900078	0	0	-1.617077112	4.031615734	-43.6975975	1.0
57	29.50900078	0	0	-1.617077589	4.031619549	-43.69760895	1.0
58	29.50900078	0	0	-1.617077231	4.031617641	-43.69759369	1.0
59	29.50900078	0	0	-1.617073417	4.031621456	-43.69760132	1.0
[LeftHandMiddle4]
56	28.3390007	0	0	0	0	0	1.0
57	28.3390007	0	0	0	0	0	1.0
58	28.3390007	0	0	0	0	0	1.0
59	28.3390007	0	0	0	0	0	1.0
[LeftHandRing1]
56	91.04499817	-0.4390000105	-18.65100098	-8.449707031	1.972094178	-92.66125488	1.0
57	91.04499817	-0.4390000105	-18.65100098	-8.449709892	1.972098112	-92.66126251	1.0
58	91.04499817	-0.4390000105	-18.65100098	-8.449709892	1.972093463	-92.66126251	1.0
59	91.04499817	-0.4390000105	-18.65100098	-8.449709892	1.972097278	-92.66123962	1.0
[LeftHandRing2]
56	31.54000092	0	0	-5.443835735	5.81276083	-86.23971558	1.0
57	31.54000092	0	0	-5.443835735	5.812761307	-86.23968506	1.0
58	31.54000092	0	0	-5.443841934	5.812756062	-86.23978424	1.0
59	31.54000092	0	0	-5.443845749	5.81276083	-86.23972321	1.0
[LeftHandRing3]
56	29.37700081	0	0	-1.453046203	3.853061438	-41.31212234	1.0
57	29.37700081	0	0	-1.453050733	3.853059769	-41.31214905	1.0
58	29.37700081	0	0	-1.453044891	3.853061199	-41.31210709	1.0
59	29.37700081	0	0	-1.453043342	3.853063583	-41.31214523	1.0
[LeftHandRing4]
56	26.47500038	0	0	0	0	0	1.0
57	26.47500038	0	0	0	0	0	1.0
58	26.47500038	0	0	0	0	0	1.0
59	26.47500038	0	0	0	0	0	1.0
[LeftHandPinky1]
56	80.77799988	-4.887000084	-38.06099701	-16.68238831	2.778092146	-98.34423828	1.0
57	80.77799988	-4.887000084	-38.06099701	-16.6823864	2.778093815	-98.34425354	1.0
58	80.77799988	-4.887000084	-38.06099701	-16.6823864	2.7780931	-98.34423065	1.0
59	80.77799988	-4.887000084	-38.06099701	-16.68238831	2.778091669	-98.34424591	1.0
[LeftHandPinky2]
56	36	0	0	-2.200026751	4.562776566	-51.4656105	1.0
57	36	0	0	-2.200024843	4.562776089	-51.46560287	1.0
58	36	0	0	-2.200028658	4.562776566	-51.46559906	1.0
59	36	0	0	-2.200023413	4.562779903	-51.46560287	1.0
[LeftHandPinky3]
56	21.14200211	0	0	-2.346138716	4.67504406	-53.27986145	1.0
57	21.14200211	0	0	-2.346140862	4.675041676	-53.27987289	1.0
58	21.14200211	0	0	-2.346141338	4.67504406	-53.27985764	1.0
59	21.14200211	0	0	-2.34613657	4.675043106	-53.27988052	1.0
[LeftHandPinky4]
56	19.75699997	0	0	0	0	0	1.0
57	19.75699997	0	0	0	0	0	1.0
58	19.75699997	0	0	0	0	0	1.0
59	19.75699997	0	0	0	0	0	1.0
[RightShoulder]
56	-45.70000076	109.4620056	-26.28000069	1.406255722	29.18338966	-3.255064011	1.0
57	-45.70000076	109.4620056	-26.28000069	1.065606236	29.21327972	-4.339650154	1.0
58	-45.70000076	109.4620056	-26.28000069	0.8384740353	29.21462822	-5.094528675	1.0
59	-45.70000076	109.4620056	-26.28000069	1.005133986	29.1491394	-4.553263187	1.0
[RightArm]
56	-105.9280014	-5.248000145	-22.32099915	53.41927338	72.80413818	69.35354614	1.0
57	-105.9280014	-5.248000145	-22.32099915	30.01642418	75.01609039	43.09539032	1.0
58	-105.9280014	-5.248000145	-22.32099915	4.078090668	73.448349	19.19482422	1.0
59	-105.9280014	-5.248000145	-22.32099915	-8.896735191	72.74834442	10.22917938	1.0
[RightForeArm]
56	-278.414978	0	0	3.075659379e-06	24.74452209	-1.327973251e-07	1.0
57	-278.414978	0	0	2.117283429e-06	35.73138809	5.857978522e-06	1.0
58	-278.414978	0	0	-2.681379783e-06	37.94532776	-7.29502699e-06	1.0
59	-278.414978	0	0	-9.04773151e-06	32.08974457	1.668998607e-06	1.0
[RightHand]
56	-283.2879944	0	0.0009999999311	23.36717415	-26.26053238	15.35674381	1.0
57	-283.2879944	0	0.0009999999311	19.83293533	-24.67507172	13.86533546	1.0
58	-283.2879944	0	0.0009999999311	14.19789696	-19.18852234	14.84452057	1.0
59	-283.2879944	0	0.0009999999311	10.753582	-10.32596016	18.0583744	1.0
[RightHandPinky1]
56	-80.76699829	-4.885000229	-38.06000137	-15.18224239	-1.629483581	97.58633423	1.0
57	-80.76699829	-4.885000229	-38.06000137	-15.18223858	-1.629502892	97.5863266	1.0
58	-80.76699829	-4.885000229	-38.06000137	-15.18222904	-1.629488111	97.58634949	1.0
59	-80.76699829	-4.885000229	-38.06000137	-15.1822319	-1.629500866	97.58634186	1.0
[RightHandPinky2]
56	-36	0	0.0009999999311	-1.749829769	-3.626919031	51.51878357	1.0
57	-36	0	0.0009999999311	-1.749816775	-3.626885653	51.51878357	1.0
58	-36	0	0.0009999999311	-1.749828339	-3.626895428	51.51877213	1.0
59	-36	0	0.0009999999311	-1.749821663	-3.626885653	51.51879501	1.0
[RightHandPinky3]
56	-21.14200211	0	0	-1.867240071	-3.717092514	53.33225632	1.0
57	-21.14200211	0	0	-1.867242813	-3.717097759	53.33224487	1.0
58	-21.14200211	0	0	-1.867234826	-3.717076778	53.33224487	1.0
59	-21.14200211	0	0	-1.867233038	-3.717094421	53.33226395	1.0
[RightHandPinky4]
56	-19.75699997	0	0	0	0	0	1.0
57	-19.75699997	0	0	0	0	0	1.0
58	-19.75699997	0	0	0	0	0	1.0
59	-19.75699997	0	0	0	0	0	1.0
[RightHandRing1]
56	-91.03599548	-0.4390000105	-18.65100098	-7.065032959	-0.7974063158	91.91008759	1.0
57	-91.03599548	-0.4390000105	-18.65100098	-7.065032005	-0.7974122763	91.91007996	1.0
58	-91.03599548	-0.4390000105	-18.65100098	-7.065027237	-0.797406435	91.91008759	1.0
59	-91.03599548	-0.4390000105	-18.65100098	-7.06503582	-0.7974076271	91.91009521	1.0
[RightHandRing2]
56	-31.54000092	0	0	-4.32774353	-4.620622158	86.24687195	1.0
57	-31.54000092	0	0	-4.327749252	-4.620641708	86.24687958	1.0
58	-31.54000092	0	0	-4.327744484	-4.620631218	86.24688721	1.0
59	-31.54000092	0	0	-4.327728271	-4.620637894	86.24685669	1.0
[RightHandRing3]
56	-29.37700081	0	0	-1.156978965	-3.063931942	41.36634064	1.0
57	-29.37700081	0	0	-1.156974435	-3.063939095	41.36634064	1.0
58	-29.37700081	0	0	-1.156965613	-3.063940287	41.36632156	1.0
59	-29.37700081	0	0	-1.15695715	-3.063929558	41.36634827	1.0
[RightHandRing4]
56	-26.47500038	0	0	0	0	0	1.0
57	-26.47500038	0	0	0	0	0	1.0
58	-26.47500038	0	0	0	0	0	1.0
59	-26.47500038	0	0	0	0	0	1.0
[RightHandMiddle1]
56	-95.32500458	0	0	-5.490190506	-4.098492622	73.57289886	1.0
57	-95.32500458	0	0	-5.490193367	-4.098508835	73.57289886	1.0
58	-95.32500458	0	0	-5.490179062	-4.098491669	73.57290649	1.0
59	-95.32500458	0	0	-5.49019146	-4.09849453	73.57291412	1.0
[RightHandMiddle2]
56	-36.98199844	0	0	-6.026584148	-4.415490627	107.5651245	1.0
57	-36.98199844	0	0	-6.026566982	-4.415483475	107.5651169	1.0
58	-36.98199844	0	0	-6.026572704	-4.415486813	107.5651245	1.0
59	-36.98199844	0	0	-6.026576996	-4.415472507	107.5651321	1.0
[RightHandMiddle3]
56	-29.50900078	0	0	-1.287469864	-3.207876921	43.75223923	1.0
57	-29.50900078	0	0	-1.28746593	-3.207851171	43.75224304	1.0
58	-29.50900078	0	0	-1.287464142	-3.207864523	43.75223923	1.0
59	-29.50900078	0	0	-1.287483811	-3.207863092	43.7522583	1.0
[RightHandMiddle4]
56	-28.3390007	0	0.0009999999311	0	0	0	1.0
57	-28.3390007	0	0.0009999999311	0	0	0	1.0
58	-28.3390007	0	0.0009999999311	0	0	0	1.0
59	-28.3390007	0	0.0009999999311	0	0	0	1.0
[RightHandIndex1]
56	-91.08300018	-5.167999744	22.60099792	2.643061161	-5.360723495	51.18568039	1.0
57	-91.08300018	-5.167999744	22.60099792	2.643073559	-5.360713959	51.18567276	1.0
58	-91.08300018	-5.167999744	22.60099792	2.643070221	-5.360716343	51.18568039	1.0
59	-91.08300018	-5.167999744	22.60099792	2.64306879	-5.360724449	51.18568039	1.0
[RightHandIndex2]
56	-36.76399994	0	0	-4.042246819	-4.593092918	82.69343567	1.0
57	-36.76399994	0	0	-4.042247295	-4.593085289	82.69343567	1.0
58	-36.76399994	0	0	-4.042248726	-4.593075275	82.69343567	1.0
59	-36.76399994	0	0	-4.042239189	-4.593076706	82.69343567	1.0
[RightHandIndex3]
56	-28.83100128	0	0	-5.126293182	-4.603947163	96.15283966	1.0
57	-28.83100128	0	0	-5.126299858	-4.603969574	96.15283966	1.0
58	-28.83100128	0	0	-5.12629509	-4.603971481	96.15283203	1.0
59	-28.83100128	0	0	-5.126283169	-4.603955746	96.15284729	1.0
[RightHandIndex4]
56	-23.92700005	0	0	0	0	0	1.0
57	-23.92700005	0	0	0	0	0	1.0
58	-23.92700005	0	0	0	0	0	1.0
59	-23.92700005	0	0	0	0	0	1.0
[RightHandThumb1]
56	-24.64799881	-15.72700024	26.82600021	-2.388246059	10.16859627	-8.287025452	1.0
57	-24.64799881	-15.72700024	26.82600021	-2.388248682	10.16859722	-8.287038803	1.0
58	-24.64799881	-15.72700024	26.82600021	-2.388241768	10.16859818	-8.287033081	1.0
59	-24.64799881	-15.72700024	26.82600021	-2.388242483	10.16859245	-8.287023544	1.0
[RightHandThumb2]
56	-32.29800034	-18.64699936	18.64699936	7.07049799	-37.46694183	0.6013924479	1.0
57	-32.29800034	-18.64699936	18.64699936	7.070499897	-37.46694565	0.6013861895	1.0
58	-32.29800034	-18.64699936	18.64699936	7.07049799	-37.46693039	0.6013961434	1.0
59	-32.29800034	-18.64699936	18.64699936	7.070500374	-37.46693802	0.6013662219	1.0
[RightHandThumb3]
56	-26.52600098	-15.31399918	15.31399918	3.291632652	-34.4118576	-26.1004982	1.0
57	-26.52600098	-15.31399918	15.31399918	3.291637182	-34.41184235	-26.10049438	1.0
58	-26.52600098	-15.31399918	15.31399918	3.291629791	-34.41186523	-26.10049629	1.0
59	-26.52600098	-15.31399918	15.31399918	3.291628122	-34.41186142	-26.10048103	1.0
[RightHandThumb4]
56	-19.54599953	-11.28499985	11.28499985	0	0	0	1.0
57	-19.54599953	-11.28499985	11.28499985	0	0	0	1.0
58	-19.54599953	-11.28499985	11.28499985	0	0	0	1.0
59	-19.54599953	-11.28499985	11.28499985	0	0	0	1.0
[LeftUpLeg]
56	82.07800293	-67.51699829	-15.99599934	-26.93401909	20.75704956	1.913593769	1.0
57	82.07800293	-67.51699829	-15.99599934	-31.84596443	24.82086563	5.100815773	1.0
58	82.07800293	-67.51699829	-15.99599934	-32.48018646	22.69965553	8.486139297	1.0
59	82.07800293	-67.51699829	-15.99599934	-29.04918861	17.93016434	11.65056896	1.0
[LeftLeg]
56	0	-443.7049866	2.845999956	47.7063179	3.712772369	5.359436035	1.0
57	0	-443.7049866	2.845999956	54.39279938	3.744709492	6.136516571	1.0
58	0	-443.7049866	2.845999956	54.53871155	4.980876446	7.465999603	1.0
59	0	-443.7049866	2.845999956	46.69952011	5.624472618	6.472261429	1.0
[LeftFoot]
56	0	-444.2789917	-29.8219986	-22.18831635	5.459843159	-15.09759617	1.0
57	0	-444.2789917	-29.8219986	-22.93141365	-0.1719800681	-13.72896194	1.0
58	0	-444.2789917	-29.8219986	-21.38223457	-3.509946823	-14.17193222	1.0
59	0	-444.2789917	-29.8219986	-17.680233	0.2927514613	-16.06575394	1.0
[LeftToeBase]
56	0	-87.28699493	107.1060028	-0.4500972331	5.579676781e-06	-1.491532544e-06	1.0
57	0	-87.28699493	107.1060028	-0.561438024	-5.875023817e-06	4.320320386e-06	1.0
58	0	-87.28699493	107.1060028	-1.702263951	6.008863238e-06	-6.611611525e-07	1.0
59	0	-87.28699493	107.1060028	-2.111065388	3.604036692e-06	2.808494628e-06	1.0
[RightUpLeg]
56	-82.07800293	-67.51699829	-15.99599934	-68.10370636	-14.18693256	-2.411479235	1.0
57	-82.07800293	-67.51699829	-15.99599934	-84.0115509	-16.09821892	1.738762498	1.0
58	-82.07800293	-67.51699829	-15.99599934	-95.07507324	-20.79577255	4.106389999	1.0
59	-82.07800293	-67.51699829	-15.99599934	-98.72107697	-26.5776062	4.467233658	1.0
[RightLeg]
56	0	-443.7049866	2.861999989	82.90050507	-0.5621345043	-7.539758205	1.0
57	0	-443.7049866	2.861999989	98.9009552	1.892596126	-7.981054306	1.0
58	0	-443.7049866	2.861999989	109.9400101	3.984826088	-8.076323509	1.0
59	0	-443.7049866	2.861999989	113.6342926	4.239732742	-6.804095268	1.0
[RightFoot]
56	0	-444.2770081	-29.83799934	15.44416046	-0.7577398419	6.36893177	1.0
57	0	-444.2770081	-29.83799934	8.350234985	-4.095609665	0.2372717261	1.0
58	0	-444.2770081	-29.83799934	0.8697814345	-10.61532021	-4.394993782	1.0
59	0	-444.2770081	-29.83799934	-1.503060699	-14.03512764	-4.752830505	1.0
[RightToeBase]
56	0	-87.28699493	107.1060028	-1.926262736	1.711556797e-05	-1.329212864e-05	1.0
57	0	-87.28699493	107.1060028	3.67980361	9.611940186e-06	-2.695228659e-06	1.0
58	0	-87.28699493	107.1060028	4.680611134	-4.664811058e-06	-6.696798209e-07	1.0
59	0	-87.28699493	107.1060028	3.210404873	-2.389610381e-05	-1.334326271e-06	1.0
[EndOfFile]
